<svg id="gophigure-banner" xmlns="http://www.w3.org/2000/svg" viewBox="0 0 2048 512"><rect id="background" width="2048" height="512" style="fill:#fff"/><g id="pattern-background"><rect width="368" height="512" style="fill:#b8e4ff"/></g><rect id="separator" x="368" width="70" height="512" style="fill:#262a33"/><g id="text"><path d="M914.52,298.26a19.47,19.47,0,0,0-2.29-9.57q-2.28-4.15-9.43-8.25t-21.7-8.95a260.75,260.75,0,0,1-25.37-10.12A111.68,111.68,0,0,1,833.54,248a59.73,59.73,0,0,1-15.67-18.17q-5.82-10.47-5.83-24.47,0-17.74,10.27-30.58t28-19.83q17.74-7,40.35-7,22.32,0,39.45,7.56T957,177.2q9.76,14.15,9.77,33.83H914.94a23.73,23.73,0,0,0-2.71-11.51,18.38,18.38,0,0,0-8.32-7.76Q898.3,189,889.56,189a37.59,37.59,0,0,0-14.21,2.36,19.74,19.74,0,0,0-8.6,6.17,13.92,13.92,0,0,0-2.84,8.53,12.34,12.34,0,0,0,4.43,9.43A45.82,45.82,0,0,0,880.69,223q7.9,3.47,18.3,6.93,21.63,6.95,36.68,16.16t23,21.91q7.9,12.69,7.9,30,0,18.45-9.22,31.27t-26.14,19.48q-16.92,6.66-39.8,6.66a120.6,120.6,0,0,1-31-4,87.45,87.45,0,0,1-27.46-12.48,62.56,62.56,0,0,1-19.55-21.7q-7.27-13.24-7.28-31.69h52.14a41.13,41.13,0,0,0,2,13.87,20.08,20.08,0,0,0,6.17,8.94,25.34,25.34,0,0,0,10.4,4.86,64.69,64.69,0,0,0,14.56,1.45q8.61,0,13.66-2.36a15.85,15.85,0,0,0,7.28-6.1A15.24,15.24,0,0,0,914.52,298.26Z" style="fill:#262a33"/><path d="M1151.1,192.73h-170v-42h170Zm-59.63,159.89h-52V150.71h52Z" style="fill:#262a33"/><path d="M1336.08,254.71q0,31.35-11.44,53.88t-31.54,34.67q-20.11,12.14-46,12.13-26.22,0-46.46-12.13t-31.68-34.67q-11.45-22.53-11.44-53.88v-6q0-31.33,11.37-53.87t31.54-34.74q20.19-12.19,46.39-12.2,25.93,0,46.11,12.2t31.69,34.74q11.51,22.53,11.5,53.87Zm-52.83-6.24q0-19.12-4.23-32T1266.61,197q-8.19-6.53-19.83-6.52-12.21,0-20.25,6.52t-12.06,19.41q-4,12.9-4,32v6.24q0,18.73,4.09,31.76t12.2,19.76q8.12,6.74,20.32,6.73,11.64,0,19.76-6.73t12.27-19.76q4.15-13,4.16-31.76Z" style="fill:#262a33"/><path d="M1440.37,150.71q23.7,0,41,7t26.77,20.6q9.42,13.59,9.43,33.69,0,18-5.34,29.75a50.33,50.33,0,0,1-14.84,19.14,94.55,94.55,0,0,1-22.26,12.68L1458.12,284h-65.87l-.28-42h47.84q8.6,0,14.35-2.78a18.27,18.27,0,0,0,8.6-8.25,29.05,29.05,0,0,0,2.84-13.52q0-11.64-6.37-18.16t-18.86-6.52h-28.71V352.62h-52V150.71Zm-15.67,113,55.19-.42,44.37,87.09v2.22h-55.74Z" style="fill:#262a33"/><path d="M1597.07,352.62h-52.15V150.71h52.15Zm88.61-159.89H1578.62v-42h107.06Zm-14.15,76.55h-92.91V228.92h92.91Zm13.73,83.34H1578.62V310.74h106.64Z" style="fill:#262a33"/></g><g id="pattern"><path id="pattern-piece" d="M123.07,242.46q-2.44-2.58-5-5C83.92,205.18,36.51,202.76,0,222.29v206l70.14-15.93C147.18,394.82,177.35,299.85,123.07,242.46Z" style="fill:#98ceea"/><path id="pattern-piece-2" data-name="pattern-piece" d="M114.7,0H0V38.34L70.08,22.43A102.41,102.41,0,0,0,114.7,0Z" style="fill:#98ceea"/><path id="pattern-piece-3" data-name="pattern-piece" d="M276.23,168.6a19.12,19.12,0,0,0,22.88,22.87L368,175.82V0H324.33a102.55,102.55,0,0,0-19,40.4Z" style="fill:#98ceea"/><path id="pattern-piece-4" data-name="pattern-piece" d="M368,357.29a102.44,102.44,0,0,0-62.7,73.11L286.76,512H368Z" style="fill:#98ceea"/></g></svg>